<mxfile host="app.diagrams.net" modified="2024-02-14T13:48:52.066Z" agent="Mozilla/5.0 (Windows NT 10.0; Win64; x64) AppleWebKit/537.36 (KHTML, like Gecko) Chrome/121.0.0.0 Safari/537.36" etag="x3nZGpc64BBcMvM0NfuJ" version="23.1.4" type="device">
  <diagram name="Page-1" id="xNBcXiq2ZQTgMyCpYH4A">
    <mxGraphModel dx="1628" dy="2489" grid="0" gridSize="10" guides="1" tooltips="1" connect="1" arrows="1" fold="1" page="1" pageScale="1" pageWidth="1169" pageHeight="827" background="#ffffff" math="0" shadow="0">
      <root>
        <mxCell id="0" />
        <mxCell id="1" parent="0" />
        <mxCell id="XLfkOmLM37LZ0YYAckQE-1" value="" style="rounded=0;whiteSpace=wrap;html=1;" vertex="1" parent="1">
          <mxGeometry x="568.48" y="1774" width="1156" height="370" as="geometry" />
        </mxCell>
        <mxCell id="qnoUL0Jq2_M7mXEKK1oB-321" value="" style="rounded=0;whiteSpace=wrap;html=1;" parent="1" vertex="1">
          <mxGeometry x="563.48" y="2197" width="1160" height="210" as="geometry" />
        </mxCell>
        <mxCell id="kQ5-0zeyX-tTI8NwDyQm-98" value="" style="rounded=0;whiteSpace=wrap;html=1;" parent="1" vertex="1">
          <mxGeometry x="559" y="1320" width="1161" height="370" as="geometry" />
        </mxCell>
        <mxCell id="qnoUL0Jq2_M7mXEKK1oB-297" value="" style="rounded=0;whiteSpace=wrap;html=1;" parent="1" vertex="1">
          <mxGeometry x="553.48" y="854" width="1160" height="370" as="geometry" />
        </mxCell>
        <mxCell id="qnoUL0Jq2_M7mXEKK1oB-272" value="" style="rounded=0;whiteSpace=wrap;html=1;" parent="1" vertex="1">
          <mxGeometry x="553.48" y="414" width="1160" height="370" as="geometry" />
        </mxCell>
        <mxCell id="qnoUL0Jq2_M7mXEKK1oB-248" value="" style="rounded=0;whiteSpace=wrap;html=1;" parent="1" vertex="1">
          <mxGeometry x="553.48" y="-56" width="1160" height="370" as="geometry" />
        </mxCell>
        <mxCell id="qnoUL0Jq2_M7mXEKK1oB-219" value="" style="rounded=0;whiteSpace=wrap;html=1;" parent="1" vertex="1">
          <mxGeometry x="553.48" y="-486" width="1160" height="370" as="geometry" />
        </mxCell>
        <mxCell id="qnoUL0Jq2_M7mXEKK1oB-25" value="" style="group" parent="1" vertex="1" connectable="0">
          <mxGeometry x="553.48" y="-1126" width="1166.88" height="560" as="geometry" />
        </mxCell>
        <mxCell id="qnoUL0Jq2_M7mXEKK1oB-52" value="" style="rounded=0;whiteSpace=wrap;html=1;rotation=90;" parent="qnoUL0Jq2_M7mXEKK1oB-25" vertex="1">
          <mxGeometry x="605.6300000000001" y="311.25" width="90" height="12.5" as="geometry" />
        </mxCell>
        <mxCell id="qnoUL0Jq2_M7mXEKK1oB-60" value="" style="endArrow=classic;html=1;rounded=0;dashed=1;" parent="qnoUL0Jq2_M7mXEKK1oB-25" edge="1">
          <mxGeometry width="50" height="50" relative="1" as="geometry">
            <mxPoint x="866.8800000000001" y="340" as="sourcePoint" />
            <mxPoint x="666.8800000000001" y="340" as="targetPoint" />
          </mxGeometry>
        </mxCell>
        <mxCell id="qnoUL0Jq2_M7mXEKK1oB-18" value="" style="rounded=0;whiteSpace=wrap;html=1;" parent="qnoUL0Jq2_M7mXEKK1oB-25" vertex="1">
          <mxGeometry x="6.88" y="60" width="1160" height="415" as="geometry" />
        </mxCell>
        <mxCell id="qnoUL0Jq2_M7mXEKK1oB-22" value="" style="shape=card;whiteSpace=wrap;html=1;rotation=-180;" parent="qnoUL0Jq2_M7mXEKK1oB-25" vertex="1">
          <mxGeometry x="6.88" y="60" width="170" height="40" as="geometry" />
        </mxCell>
        <mxCell id="qnoUL0Jq2_M7mXEKK1oB-23" value="&lt;font style=&quot;font-size: 18px;&quot;&gt;alt&lt;/font&gt;" style="text;html=1;strokeColor=none;fillColor=none;align=center;verticalAlign=middle;whiteSpace=wrap;rounded=0;" parent="qnoUL0Jq2_M7mXEKK1oB-25" vertex="1">
          <mxGeometry x="46.88" y="65" width="60" height="30" as="geometry" />
        </mxCell>
        <mxCell id="qnoUL0Jq2_M7mXEKK1oB-38" value="&lt;font style=&quot;font-size: 17px;&quot;&gt;option = create save job&lt;/font&gt;" style="text;html=1;strokeColor=none;fillColor=none;align=center;verticalAlign=middle;whiteSpace=wrap;rounded=0;" parent="qnoUL0Jq2_M7mXEKK1oB-25" vertex="1">
          <mxGeometry x="-16.76" y="157" width="240" height="30" as="geometry" />
        </mxCell>
        <mxCell id="gqO7WR2qKQyJyXqrul-2-118" value="New save job" style="text;html=1;strokeColor=none;fillColor=none;align=center;verticalAlign=middle;whiteSpace=wrap;rounded=0;" parent="qnoUL0Jq2_M7mXEKK1oB-25" vertex="1">
          <mxGeometry x="258.12" y="100" width="110" height="30" as="geometry" />
        </mxCell>
        <mxCell id="gqO7WR2qKQyJyXqrul-2-120" value="" style="endArrow=classic;html=1;rounded=0;exitX=0.098;exitY=-0.066;exitDx=0;exitDy=0;exitPerimeter=0;" parent="qnoUL0Jq2_M7mXEKK1oB-25" edge="1">
          <mxGeometry width="50" height="50" relative="1" as="geometry">
            <mxPoint x="230.1249999999999" y="130.16499999999985" as="sourcePoint" />
            <mxPoint x="404.29999999999984" y="129.9999999999999" as="targetPoint" />
            <Array as="points">
              <mxPoint x="324.29999999999984" y="129.9999999999999" />
            </Array>
          </mxGeometry>
        </mxCell>
        <mxCell id="gqO7WR2qKQyJyXqrul-2-119" value="Show feedback" style="text;html=1;strokeColor=none;fillColor=none;align=center;verticalAlign=middle;whiteSpace=wrap;rounded=0;" parent="qnoUL0Jq2_M7mXEKK1oB-25" vertex="1">
          <mxGeometry x="248.12" y="169" width="120" height="30" as="geometry" />
        </mxCell>
        <mxCell id="gqO7WR2qKQyJyXqrul-2-134" value="Show menu" style="text;html=1;strokeColor=none;fillColor=none;align=center;verticalAlign=middle;whiteSpace=wrap;rounded=0;" parent="qnoUL0Jq2_M7mXEKK1oB-25" vertex="1">
          <mxGeometry x="253.12" y="248" width="110" height="30" as="geometry" />
        </mxCell>
        <mxCell id="gqO7WR2qKQyJyXqrul-2-128" value="" style="endArrow=classic;html=1;rounded=0;dashed=1;" parent="qnoUL0Jq2_M7mXEKK1oB-25" edge="1">
          <mxGeometry width="50" height="50" relative="1" as="geometry">
            <mxPoint x="403.0200000000001" y="206" as="sourcePoint" />
            <mxPoint x="223.2299999999999" y="206.23000000000002" as="targetPoint" />
          </mxGeometry>
        </mxCell>
        <mxCell id="gqO7WR2qKQyJyXqrul-2-135" value="" style="endArrow=classic;html=1;rounded=0;dashed=1;" parent="qnoUL0Jq2_M7mXEKK1oB-25" edge="1">
          <mxGeometry width="50" height="50" relative="1" as="geometry">
            <mxPoint x="405.12" y="278" as="sourcePoint" />
            <mxPoint x="225.12" y="278" as="targetPoint" />
          </mxGeometry>
        </mxCell>
        <mxCell id="gqO7WR2qKQyJyXqrul-2-126" value="Send new job&amp;nbsp;" style="text;html=1;strokeColor=none;fillColor=none;align=center;verticalAlign=middle;whiteSpace=wrap;rounded=0;" parent="qnoUL0Jq2_M7mXEKK1oB-25" vertex="1">
          <mxGeometry x="495.12" y="130" width="110" height="30" as="geometry" />
        </mxCell>
        <mxCell id="gqO7WR2qKQyJyXqrul-2-121" value="" style="endArrow=classic;html=1;rounded=0;exitX=0.098;exitY=-0.066;exitDx=0;exitDy=0;exitPerimeter=0;" parent="qnoUL0Jq2_M7mXEKK1oB-25" edge="1">
          <mxGeometry width="50" height="50" relative="1" as="geometry">
            <mxPoint x="450.1150000000001" y="169.16499999999985" as="sourcePoint" />
            <mxPoint x="650.12" y="169" as="targetPoint" />
            <Array as="points">
              <mxPoint x="544.2900000000001" y="168.9999999999999" />
            </Array>
          </mxGeometry>
        </mxCell>
        <mxCell id="gqO7WR2qKQyJyXqrul-2-125" value="Send feedback" style="text;html=1;strokeColor=none;fillColor=none;align=center;verticalAlign=middle;whiteSpace=wrap;rounded=0;" parent="qnoUL0Jq2_M7mXEKK1oB-25" vertex="1">
          <mxGeometry x="495.12" y="199" width="110" height="30" as="geometry" />
        </mxCell>
        <mxCell id="gqO7WR2qKQyJyXqrul-2-123" value="" style="endArrow=classic;html=1;rounded=0;dashed=1;" parent="qnoUL0Jq2_M7mXEKK1oB-25" edge="1">
          <mxGeometry width="50" height="50" relative="1" as="geometry">
            <mxPoint x="650.12" y="234" as="sourcePoint" />
            <mxPoint x="450.12" y="234" as="targetPoint" />
            <Array as="points" />
          </mxGeometry>
        </mxCell>
        <mxCell id="gqO7WR2qKQyJyXqrul-2-131" value="" style="rounded=0;whiteSpace=wrap;html=1;rotation=90;" parent="qnoUL0Jq2_M7mXEKK1oB-25" vertex="1">
          <mxGeometry x="603.75" y="191" width="90" height="12.5" as="geometry" />
        </mxCell>
        <mxCell id="qnoUL0Jq2_M7mXEKK1oB-15" value="" style="endArrow=classic;html=1;rounded=0;exitX=0.098;exitY=-0.066;exitDx=0;exitDy=0;exitPerimeter=0;" parent="qnoUL0Jq2_M7mXEKK1oB-25" edge="1">
          <mxGeometry width="50" height="50" relative="1" as="geometry">
            <mxPoint x="224.79499999999996" y="30.164999999999964" as="sourcePoint" />
            <mxPoint x="398.97" y="30" as="targetPoint" />
            <Array as="points">
              <mxPoint x="318.9699999999999" y="30" />
            </Array>
          </mxGeometry>
        </mxCell>
        <mxCell id="qnoUL0Jq2_M7mXEKK1oB-16" value="Select option" style="text;html=1;strokeColor=none;fillColor=none;align=center;verticalAlign=middle;whiteSpace=wrap;rounded=0;" parent="qnoUL0Jq2_M7mXEKK1oB-25" vertex="1">
          <mxGeometry x="256.88" width="110" height="30" as="geometry" />
        </mxCell>
        <mxCell id="gqO7WR2qKQyJyXqrul-2-127" value="Write changes" style="text;html=1;strokeColor=none;fillColor=none;align=center;verticalAlign=middle;whiteSpace=wrap;rounded=0;" parent="qnoUL0Jq2_M7mXEKK1oB-25" vertex="1">
          <mxGeometry x="706.24" y="130" width="110" height="30" as="geometry" />
        </mxCell>
        <mxCell id="gqO7WR2qKQyJyXqrul-2-124" value="Send feedback" style="text;html=1;strokeColor=none;fillColor=none;align=center;verticalAlign=middle;whiteSpace=wrap;rounded=0;" parent="qnoUL0Jq2_M7mXEKK1oB-25" vertex="1">
          <mxGeometry x="706.24" y="201" width="110" height="30" as="geometry" />
        </mxCell>
        <mxCell id="gqO7WR2qKQyJyXqrul-2-122" value="" style="endArrow=classic;html=1;rounded=0;" parent="qnoUL0Jq2_M7mXEKK1oB-25" edge="1">
          <mxGeometry width="50" height="50" relative="1" as="geometry">
            <mxPoint x="679.24" y="166.5" as="sourcePoint" />
            <mxPoint x="889.24" y="166.5" as="targetPoint" />
            <Array as="points" />
          </mxGeometry>
        </mxCell>
        <mxCell id="gqO7WR2qKQyJyXqrul-2-129" value="" style="endArrow=classic;html=1;rounded=0;dashed=1;" parent="qnoUL0Jq2_M7mXEKK1oB-25" edge="1">
          <mxGeometry width="50" height="50" relative="1" as="geometry">
            <mxPoint x="890.24" y="236" as="sourcePoint" />
            <mxPoint x="690.24" y="236" as="targetPoint" />
          </mxGeometry>
        </mxCell>
        <mxCell id="gqO7WR2qKQyJyXqrul-2-132" value="" style="rounded=0;whiteSpace=wrap;html=1;rotation=90;" parent="qnoUL0Jq2_M7mXEKK1oB-25" vertex="1">
          <mxGeometry x="863.53" y="198.71" width="77.76" height="10" as="geometry" />
        </mxCell>
        <mxCell id="qnoUL0Jq2_M7mXEKK1oB-322" value="" style="shape=card;whiteSpace=wrap;html=1;rotation=-180;" parent="1" vertex="1">
          <mxGeometry x="563.48" y="2197" width="170" height="40" as="geometry" />
        </mxCell>
        <mxCell id="qnoUL0Jq2_M7mXEKK1oB-323" value="&lt;font style=&quot;font-size: 18px;&quot;&gt;alt&lt;/font&gt;" style="text;html=1;strokeColor=none;fillColor=none;align=center;verticalAlign=middle;whiteSpace=wrap;rounded=0;" parent="1" vertex="1">
          <mxGeometry x="603.48" y="2202" width="50" height="30" as="geometry" />
        </mxCell>
        <mxCell id="qnoUL0Jq2_M7mXEKK1oB-324" value="&lt;font style=&quot;font-size: 17px;&quot;&gt;option = exit&lt;/font&gt;" style="text;html=1;strokeColor=none;fillColor=none;align=center;verticalAlign=middle;whiteSpace=wrap;rounded=0;" parent="1" vertex="1">
          <mxGeometry x="503.48" y="2247" width="230" height="30" as="geometry" />
        </mxCell>
        <mxCell id="qnoUL0Jq2_M7mXEKK1oB-325" value="Show view update&amp;nbsp;" style="text;html=1;strokeColor=none;fillColor=none;align=center;verticalAlign=middle;whiteSpace=wrap;rounded=0;" parent="1" vertex="1">
          <mxGeometry x="923.48" y="2267" width="110" height="30" as="geometry" />
        </mxCell>
        <mxCell id="qnoUL0Jq2_M7mXEKK1oB-298" value="" style="shape=card;whiteSpace=wrap;html=1;rotation=-180;" parent="1" vertex="1">
          <mxGeometry x="553.48" y="854" width="170" height="40" as="geometry" />
        </mxCell>
        <mxCell id="qnoUL0Jq2_M7mXEKK1oB-299" value="&lt;font style=&quot;font-size: 18px;&quot;&gt;alt&lt;/font&gt;" style="text;html=1;strokeColor=none;fillColor=none;align=center;verticalAlign=middle;whiteSpace=wrap;rounded=0;" parent="1" vertex="1">
          <mxGeometry x="593.48" y="859" width="50" height="30" as="geometry" />
        </mxCell>
        <mxCell id="qnoUL0Jq2_M7mXEKK1oB-300" value="&lt;font style=&quot;font-size: 17px;&quot;&gt;option = select language&lt;/font&gt;" style="text;html=1;strokeColor=none;fillColor=none;align=center;verticalAlign=middle;whiteSpace=wrap;rounded=0;" parent="1" vertex="1">
          <mxGeometry x="543.48" y="904" width="230" height="30" as="geometry" />
        </mxCell>
        <mxCell id="qnoUL0Jq2_M7mXEKK1oB-301" value="Show view update&amp;nbsp;" style="text;html=1;strokeColor=none;fillColor=none;align=center;verticalAlign=middle;whiteSpace=wrap;rounded=0;" parent="1" vertex="1">
          <mxGeometry x="803.48" y="914" width="110" height="30" as="geometry" />
        </mxCell>
        <mxCell id="qnoUL0Jq2_M7mXEKK1oB-302" value="" style="endArrow=classic;html=1;rounded=0;dashed=1;" parent="1" edge="1">
          <mxGeometry width="50" height="50" relative="1" as="geometry">
            <mxPoint x="953.48" y="944" as="sourcePoint" />
            <mxPoint x="773.48" y="944" as="targetPoint" />
          </mxGeometry>
        </mxCell>
        <mxCell id="qnoUL0Jq2_M7mXEKK1oB-303" value="Select language" style="text;html=1;strokeColor=none;fillColor=none;align=center;verticalAlign=middle;whiteSpace=wrap;rounded=0;" parent="1" vertex="1">
          <mxGeometry x="803.48" y="954" width="120" height="30" as="geometry" />
        </mxCell>
        <mxCell id="qnoUL0Jq2_M7mXEKK1oB-304" value="" style="endArrow=classic;html=1;rounded=0;dashed=1;" parent="1" edge="1">
          <mxGeometry width="50" height="50" relative="1" as="geometry">
            <mxPoint x="953.48" y="984" as="sourcePoint" />
            <mxPoint x="773.48" y="984" as="targetPoint" />
          </mxGeometry>
        </mxCell>
        <mxCell id="qnoUL0Jq2_M7mXEKK1oB-305" value="Choosen language" style="text;html=1;strokeColor=none;fillColor=none;align=center;verticalAlign=middle;whiteSpace=wrap;rounded=0;" parent="1" vertex="1">
          <mxGeometry x="808.48" y="1014" width="110" height="30" as="geometry" />
        </mxCell>
        <mxCell id="qnoUL0Jq2_M7mXEKK1oB-306" value="Show feedback" style="text;html=1;strokeColor=none;fillColor=none;align=center;verticalAlign=middle;whiteSpace=wrap;rounded=0;" parent="1" vertex="1">
          <mxGeometry x="808.48" y="1126.35" width="110" height="30" as="geometry" />
        </mxCell>
        <mxCell id="qnoUL0Jq2_M7mXEKK1oB-307" value="" style="endArrow=classic;html=1;rounded=0;exitX=0.098;exitY=-0.066;exitDx=0;exitDy=0;exitPerimeter=0;" parent="1" edge="1">
          <mxGeometry width="50" height="50" relative="1" as="geometry">
            <mxPoint x="776.395" y="1041.665" as="sourcePoint" />
            <mxPoint x="950.57" y="1041.5" as="targetPoint" />
            <Array as="points">
              <mxPoint x="870.5699999999999" y="1041.5" />
            </Array>
          </mxGeometry>
        </mxCell>
        <mxCell id="qnoUL0Jq2_M7mXEKK1oB-308" value="" style="endArrow=classic;html=1;rounded=0;exitX=0.098;exitY=-0.066;exitDx=0;exitDy=0;exitPerimeter=0;" parent="1" edge="1">
          <mxGeometry width="50" height="50" relative="1" as="geometry">
            <mxPoint x="978.4750000000001" y="1064.165" as="sourcePoint" />
            <mxPoint x="1178.48" y="1064" as="targetPoint" />
            <Array as="points">
              <mxPoint x="1072.6499999999999" y="1064" />
            </Array>
          </mxGeometry>
        </mxCell>
        <mxCell id="qnoUL0Jq2_M7mXEKK1oB-309" value="" style="endArrow=classic;html=1;rounded=0;" parent="1" edge="1">
          <mxGeometry width="50" height="50" relative="1" as="geometry">
            <mxPoint x="1218.48" y="1079" as="sourcePoint" />
            <mxPoint x="1428.48" y="1079" as="targetPoint" />
            <Array as="points" />
          </mxGeometry>
        </mxCell>
        <mxCell id="qnoUL0Jq2_M7mXEKK1oB-310" value="" style="endArrow=classic;html=1;rounded=0;dashed=1;" parent="1" edge="1">
          <mxGeometry width="50" height="50" relative="1" as="geometry">
            <mxPoint x="1178.48" y="1124" as="sourcePoint" />
            <mxPoint x="978.48" y="1124" as="targetPoint" />
          </mxGeometry>
        </mxCell>
        <mxCell id="qnoUL0Jq2_M7mXEKK1oB-311" value="Send feedback" style="text;html=1;strokeColor=none;fillColor=none;align=center;verticalAlign=middle;whiteSpace=wrap;rounded=0;" parent="1" vertex="1">
          <mxGeometry x="1265.48" y="1084" width="110" height="30" as="geometry" />
        </mxCell>
        <mxCell id="qnoUL0Jq2_M7mXEKK1oB-312" value="Send feedback" style="text;html=1;strokeColor=none;fillColor=none;align=center;verticalAlign=middle;whiteSpace=wrap;rounded=0;" parent="1" vertex="1">
          <mxGeometry x="1018.48" y="1096.35" width="110" height="30" as="geometry" />
        </mxCell>
        <mxCell id="qnoUL0Jq2_M7mXEKK1oB-313" value="Send language&amp;nbsp;" style="text;html=1;strokeColor=none;fillColor=none;align=center;verticalAlign=middle;whiteSpace=wrap;rounded=0;" parent="1" vertex="1">
          <mxGeometry x="1018.48" y="1034" width="110" height="30" as="geometry" />
        </mxCell>
        <mxCell id="qnoUL0Jq2_M7mXEKK1oB-314" value="Change language" style="text;html=1;strokeColor=none;fillColor=none;align=center;verticalAlign=middle;whiteSpace=wrap;rounded=0;" parent="1" vertex="1">
          <mxGeometry x="1268.48" y="1054" width="110" height="30" as="geometry" />
        </mxCell>
        <mxCell id="qnoUL0Jq2_M7mXEKK1oB-315" value="" style="endArrow=classic;html=1;rounded=0;dashed=1;" parent="1" edge="1">
          <mxGeometry width="50" height="50" relative="1" as="geometry">
            <mxPoint x="953.48" y="1153.23" as="sourcePoint" />
            <mxPoint x="773.48" y="1153.23" as="targetPoint" />
          </mxGeometry>
        </mxCell>
        <mxCell id="qnoUL0Jq2_M7mXEKK1oB-316" value="" style="endArrow=classic;html=1;rounded=0;dashed=1;" parent="1" edge="1">
          <mxGeometry width="50" height="50" relative="1" as="geometry">
            <mxPoint x="1418.48" y="1114" as="sourcePoint" />
            <mxPoint x="1218.48" y="1114" as="targetPoint" />
          </mxGeometry>
        </mxCell>
        <mxCell id="qnoUL0Jq2_M7mXEKK1oB-317" value="Show menu" style="text;html=1;strokeColor=none;fillColor=none;align=center;verticalAlign=middle;whiteSpace=wrap;rounded=0;" parent="1" vertex="1">
          <mxGeometry x="808.48" y="1164" width="110" height="30" as="geometry" />
        </mxCell>
        <mxCell id="qnoUL0Jq2_M7mXEKK1oB-318" value="" style="endArrow=classic;html=1;rounded=0;dashed=1;" parent="1" edge="1">
          <mxGeometry width="50" height="50" relative="1" as="geometry">
            <mxPoint x="953.48" y="1192.46" as="sourcePoint" />
            <mxPoint x="773.48" y="1192.46" as="targetPoint" />
          </mxGeometry>
        </mxCell>
        <mxCell id="qnoUL0Jq2_M7mXEKK1oB-273" value="" style="shape=card;whiteSpace=wrap;html=1;rotation=-180;" parent="1" vertex="1">
          <mxGeometry x="553.48" y="414" width="170" height="40" as="geometry" />
        </mxCell>
        <mxCell id="qnoUL0Jq2_M7mXEKK1oB-274" value="&lt;font style=&quot;font-size: 18px;&quot;&gt;alt&lt;/font&gt;" style="text;html=1;strokeColor=none;fillColor=none;align=center;verticalAlign=middle;whiteSpace=wrap;rounded=0;" parent="1" vertex="1">
          <mxGeometry x="593.48" y="419" width="50" height="30" as="geometry" />
        </mxCell>
        <mxCell id="qnoUL0Jq2_M7mXEKK1oB-275" value="&lt;font style=&quot;font-size: 17px;&quot;&gt;option = delete save job&lt;/font&gt;" style="text;html=1;strokeColor=none;fillColor=none;align=center;verticalAlign=middle;whiteSpace=wrap;rounded=0;" parent="1" vertex="1">
          <mxGeometry x="543.48" y="464" width="230" height="30" as="geometry" />
        </mxCell>
        <mxCell id="qnoUL0Jq2_M7mXEKK1oB-276" value="Show view update&amp;nbsp;" style="text;html=1;strokeColor=none;fillColor=none;align=center;verticalAlign=middle;whiteSpace=wrap;rounded=0;" parent="1" vertex="1">
          <mxGeometry x="803.48" y="474" width="110" height="30" as="geometry" />
        </mxCell>
        <mxCell id="qnoUL0Jq2_M7mXEKK1oB-277" value="" style="endArrow=classic;html=1;rounded=0;dashed=1;" parent="1" edge="1">
          <mxGeometry width="50" height="50" relative="1" as="geometry">
            <mxPoint x="953.48" y="504" as="sourcePoint" />
            <mxPoint x="773.48" y="504" as="targetPoint" />
          </mxGeometry>
        </mxCell>
        <mxCell id="qnoUL0Jq2_M7mXEKK1oB-278" value="Select job to delete" style="text;html=1;strokeColor=none;fillColor=none;align=center;verticalAlign=middle;whiteSpace=wrap;rounded=0;" parent="1" vertex="1">
          <mxGeometry x="803.48" y="514" width="120" height="30" as="geometry" />
        </mxCell>
        <mxCell id="qnoUL0Jq2_M7mXEKK1oB-279" value="" style="endArrow=classic;html=1;rounded=0;dashed=1;" parent="1" edge="1">
          <mxGeometry width="50" height="50" relative="1" as="geometry">
            <mxPoint x="953.48" y="544" as="sourcePoint" />
            <mxPoint x="773.48" y="544" as="targetPoint" />
          </mxGeometry>
        </mxCell>
        <mxCell id="qnoUL0Jq2_M7mXEKK1oB-280" value="Job to delete&amp;nbsp;" style="text;html=1;strokeColor=none;fillColor=none;align=center;verticalAlign=middle;whiteSpace=wrap;rounded=0;" parent="1" vertex="1">
          <mxGeometry x="808.48" y="574" width="110" height="30" as="geometry" />
        </mxCell>
        <mxCell id="qnoUL0Jq2_M7mXEKK1oB-281" value="Show feedback" style="text;html=1;strokeColor=none;fillColor=none;align=center;verticalAlign=middle;whiteSpace=wrap;rounded=0;" parent="1" vertex="1">
          <mxGeometry x="808.48" y="686.3499999999999" width="110" height="30" as="geometry" />
        </mxCell>
        <mxCell id="qnoUL0Jq2_M7mXEKK1oB-282" value="" style="endArrow=classic;html=1;rounded=0;exitX=0.098;exitY=-0.066;exitDx=0;exitDy=0;exitPerimeter=0;" parent="1" edge="1">
          <mxGeometry width="50" height="50" relative="1" as="geometry">
            <mxPoint x="776.395" y="601.665" as="sourcePoint" />
            <mxPoint x="950.57" y="601.5" as="targetPoint" />
            <Array as="points">
              <mxPoint x="870.5699999999999" y="601.5" />
            </Array>
          </mxGeometry>
        </mxCell>
        <mxCell id="qnoUL0Jq2_M7mXEKK1oB-283" value="" style="endArrow=classic;html=1;rounded=0;exitX=0.098;exitY=-0.066;exitDx=0;exitDy=0;exitPerimeter=0;" parent="1" edge="1">
          <mxGeometry width="50" height="50" relative="1" as="geometry">
            <mxPoint x="978.4750000000001" y="624.165" as="sourcePoint" />
            <mxPoint x="1178.48" y="624" as="targetPoint" />
            <Array as="points">
              <mxPoint x="1072.6499999999999" y="624" />
            </Array>
          </mxGeometry>
        </mxCell>
        <mxCell id="qnoUL0Jq2_M7mXEKK1oB-284" value="" style="endArrow=classic;html=1;rounded=0;" parent="1" edge="1">
          <mxGeometry width="50" height="50" relative="1" as="geometry">
            <mxPoint x="1218.48" y="639" as="sourcePoint" />
            <mxPoint x="1428.48" y="639" as="targetPoint" />
            <Array as="points" />
          </mxGeometry>
        </mxCell>
        <mxCell id="qnoUL0Jq2_M7mXEKK1oB-285" value="" style="endArrow=classic;html=1;rounded=0;dashed=1;" parent="1" edge="1">
          <mxGeometry width="50" height="50" relative="1" as="geometry">
            <mxPoint x="1178.48" y="684" as="sourcePoint" />
            <mxPoint x="978.48" y="684" as="targetPoint" />
          </mxGeometry>
        </mxCell>
        <mxCell id="qnoUL0Jq2_M7mXEKK1oB-286" value="Send feedback" style="text;html=1;strokeColor=none;fillColor=none;align=center;verticalAlign=middle;whiteSpace=wrap;rounded=0;" parent="1" vertex="1">
          <mxGeometry x="1265.48" y="644" width="110" height="30" as="geometry" />
        </mxCell>
        <mxCell id="qnoUL0Jq2_M7mXEKK1oB-287" value="Send feedback" style="text;html=1;strokeColor=none;fillColor=none;align=center;verticalAlign=middle;whiteSpace=wrap;rounded=0;" parent="1" vertex="1">
          <mxGeometry x="1018.48" y="656.3499999999999" width="110" height="30" as="geometry" />
        </mxCell>
        <mxCell id="qnoUL0Jq2_M7mXEKK1oB-288" value="Send job to delete&amp;nbsp;" style="text;html=1;strokeColor=none;fillColor=none;align=center;verticalAlign=middle;whiteSpace=wrap;rounded=0;" parent="1" vertex="1">
          <mxGeometry x="1018.48" y="594" width="110" height="30" as="geometry" />
        </mxCell>
        <mxCell id="qnoUL0Jq2_M7mXEKK1oB-289" value="Delete job" style="text;html=1;strokeColor=none;fillColor=none;align=center;verticalAlign=middle;whiteSpace=wrap;rounded=0;" parent="1" vertex="1">
          <mxGeometry x="1268.48" y="614" width="110" height="30" as="geometry" />
        </mxCell>
        <mxCell id="qnoUL0Jq2_M7mXEKK1oB-290" value="" style="endArrow=classic;html=1;rounded=0;dashed=1;" parent="1" edge="1">
          <mxGeometry width="50" height="50" relative="1" as="geometry">
            <mxPoint x="953.48" y="713.23" as="sourcePoint" />
            <mxPoint x="773.48" y="713.23" as="targetPoint" />
          </mxGeometry>
        </mxCell>
        <mxCell id="qnoUL0Jq2_M7mXEKK1oB-291" value="" style="endArrow=classic;html=1;rounded=0;dashed=1;" parent="1" edge="1">
          <mxGeometry width="50" height="50" relative="1" as="geometry">
            <mxPoint x="1418.48" y="674" as="sourcePoint" />
            <mxPoint x="1218.48" y="674" as="targetPoint" />
          </mxGeometry>
        </mxCell>
        <mxCell id="qnoUL0Jq2_M7mXEKK1oB-292" value="Show menu" style="text;html=1;strokeColor=none;fillColor=none;align=center;verticalAlign=middle;whiteSpace=wrap;rounded=0;" parent="1" vertex="1">
          <mxGeometry x="808.48" y="724" width="110" height="30" as="geometry" />
        </mxCell>
        <mxCell id="qnoUL0Jq2_M7mXEKK1oB-293" value="" style="endArrow=classic;html=1;rounded=0;dashed=1;" parent="1" edge="1">
          <mxGeometry width="50" height="50" relative="1" as="geometry">
            <mxPoint x="953.48" y="752.46" as="sourcePoint" />
            <mxPoint x="773.48" y="752.46" as="targetPoint" />
          </mxGeometry>
        </mxCell>
        <mxCell id="qnoUL0Jq2_M7mXEKK1oB-249" value="" style="shape=card;whiteSpace=wrap;html=1;rotation=-180;" parent="1" vertex="1">
          <mxGeometry x="553.48" y="-56" width="170" height="40" as="geometry" />
        </mxCell>
        <mxCell id="qnoUL0Jq2_M7mXEKK1oB-250" value="&lt;font style=&quot;font-size: 18px;&quot;&gt;alt&lt;/font&gt;" style="text;html=1;strokeColor=none;fillColor=none;align=center;verticalAlign=middle;whiteSpace=wrap;rounded=0;" parent="1" vertex="1">
          <mxGeometry x="593.48" y="-51" width="50" height="30" as="geometry" />
        </mxCell>
        <mxCell id="qnoUL0Jq2_M7mXEKK1oB-251" value="&lt;font style=&quot;font-size: 17px;&quot;&gt;option = launch save job&lt;/font&gt;" style="text;html=1;strokeColor=none;fillColor=none;align=center;verticalAlign=middle;whiteSpace=wrap;rounded=0;" parent="1" vertex="1">
          <mxGeometry x="543.48" y="-6" width="230" height="30" as="geometry" />
        </mxCell>
        <mxCell id="qnoUL0Jq2_M7mXEKK1oB-252" value="Show view update&amp;nbsp;" style="text;html=1;strokeColor=none;fillColor=none;align=center;verticalAlign=middle;whiteSpace=wrap;rounded=0;" parent="1" vertex="1">
          <mxGeometry x="803.48" y="4" width="110" height="30" as="geometry" />
        </mxCell>
        <mxCell id="qnoUL0Jq2_M7mXEKK1oB-253" value="" style="endArrow=classic;html=1;rounded=0;dashed=1;" parent="1" edge="1">
          <mxGeometry width="50" height="50" relative="1" as="geometry">
            <mxPoint x="953.48" y="34" as="sourcePoint" />
            <mxPoint x="773.48" y="34" as="targetPoint" />
          </mxGeometry>
        </mxCell>
        <mxCell id="qnoUL0Jq2_M7mXEKK1oB-254" value="Select job to execute" style="text;html=1;strokeColor=none;fillColor=none;align=center;verticalAlign=middle;whiteSpace=wrap;rounded=0;" parent="1" vertex="1">
          <mxGeometry x="803.48" y="44" width="120" height="30" as="geometry" />
        </mxCell>
        <mxCell id="qnoUL0Jq2_M7mXEKK1oB-255" value="" style="endArrow=classic;html=1;rounded=0;dashed=1;" parent="1" edge="1">
          <mxGeometry width="50" height="50" relative="1" as="geometry">
            <mxPoint x="953.48" y="74" as="sourcePoint" />
            <mxPoint x="773.48" y="74" as="targetPoint" />
          </mxGeometry>
        </mxCell>
        <mxCell id="qnoUL0Jq2_M7mXEKK1oB-256" value="Job to execute&amp;nbsp;" style="text;html=1;strokeColor=none;fillColor=none;align=center;verticalAlign=middle;whiteSpace=wrap;rounded=0;" parent="1" vertex="1">
          <mxGeometry x="808.48" y="104" width="110" height="30" as="geometry" />
        </mxCell>
        <mxCell id="qnoUL0Jq2_M7mXEKK1oB-257" value="Show feedback" style="text;html=1;strokeColor=none;fillColor=none;align=center;verticalAlign=middle;whiteSpace=wrap;rounded=0;" parent="1" vertex="1">
          <mxGeometry x="808.48" y="216.3499999999999" width="110" height="30" as="geometry" />
        </mxCell>
        <mxCell id="qnoUL0Jq2_M7mXEKK1oB-258" value="" style="endArrow=classic;html=1;rounded=0;exitX=0.098;exitY=-0.066;exitDx=0;exitDy=0;exitPerimeter=0;" parent="1" edge="1">
          <mxGeometry width="50" height="50" relative="1" as="geometry">
            <mxPoint x="776.395" y="131.66499999999996" as="sourcePoint" />
            <mxPoint x="950.57" y="131.5" as="targetPoint" />
            <Array as="points">
              <mxPoint x="870.5699999999999" y="131.5" />
            </Array>
          </mxGeometry>
        </mxCell>
        <mxCell id="qnoUL0Jq2_M7mXEKK1oB-259" value="" style="endArrow=classic;html=1;rounded=0;exitX=0.098;exitY=-0.066;exitDx=0;exitDy=0;exitPerimeter=0;" parent="1" edge="1">
          <mxGeometry width="50" height="50" relative="1" as="geometry">
            <mxPoint x="978.4750000000001" y="154.16499999999996" as="sourcePoint" />
            <mxPoint x="1178.48" y="154" as="targetPoint" />
            <Array as="points">
              <mxPoint x="1072.6499999999999" y="154" />
            </Array>
          </mxGeometry>
        </mxCell>
        <mxCell id="qnoUL0Jq2_M7mXEKK1oB-261" value="" style="endArrow=classic;html=1;rounded=0;" parent="1" edge="1">
          <mxGeometry width="50" height="50" relative="1" as="geometry">
            <mxPoint x="1218.48" y="169" as="sourcePoint" />
            <mxPoint x="1428.48" y="169" as="targetPoint" />
            <Array as="points" />
          </mxGeometry>
        </mxCell>
        <mxCell id="qnoUL0Jq2_M7mXEKK1oB-262" value="" style="endArrow=classic;html=1;rounded=0;dashed=1;" parent="1" edge="1">
          <mxGeometry width="50" height="50" relative="1" as="geometry">
            <mxPoint x="1178.48" y="214" as="sourcePoint" />
            <mxPoint x="978.48" y="214" as="targetPoint" />
          </mxGeometry>
        </mxCell>
        <mxCell id="qnoUL0Jq2_M7mXEKK1oB-263" value="Send feedback" style="text;html=1;strokeColor=none;fillColor=none;align=center;verticalAlign=middle;whiteSpace=wrap;rounded=0;" parent="1" vertex="1">
          <mxGeometry x="1265.48" y="174" width="110" height="30" as="geometry" />
        </mxCell>
        <mxCell id="qnoUL0Jq2_M7mXEKK1oB-264" value="Send feedback" style="text;html=1;strokeColor=none;fillColor=none;align=center;verticalAlign=middle;whiteSpace=wrap;rounded=0;" parent="1" vertex="1">
          <mxGeometry x="1018.48" y="186.3499999999999" width="110" height="30" as="geometry" />
        </mxCell>
        <mxCell id="qnoUL0Jq2_M7mXEKK1oB-265" value="Send job to update&amp;nbsp;" style="text;html=1;strokeColor=none;fillColor=none;align=center;verticalAlign=middle;whiteSpace=wrap;rounded=0;" parent="1" vertex="1">
          <mxGeometry x="1018.48" y="124" width="110" height="30" as="geometry" />
        </mxCell>
        <mxCell id="qnoUL0Jq2_M7mXEKK1oB-266" value="Launch job" style="text;html=1;strokeColor=none;fillColor=none;align=center;verticalAlign=middle;whiteSpace=wrap;rounded=0;" parent="1" vertex="1">
          <mxGeometry x="1268.48" y="144" width="110" height="30" as="geometry" />
        </mxCell>
        <mxCell id="qnoUL0Jq2_M7mXEKK1oB-267" value="" style="endArrow=classic;html=1;rounded=0;dashed=1;" parent="1" edge="1">
          <mxGeometry width="50" height="50" relative="1" as="geometry">
            <mxPoint x="953.48" y="243.23000000000002" as="sourcePoint" />
            <mxPoint x="773.48" y="243.23000000000002" as="targetPoint" />
          </mxGeometry>
        </mxCell>
        <mxCell id="qnoUL0Jq2_M7mXEKK1oB-269" value="" style="endArrow=classic;html=1;rounded=0;dashed=1;" parent="1" edge="1">
          <mxGeometry width="50" height="50" relative="1" as="geometry">
            <mxPoint x="1418.48" y="204" as="sourcePoint" />
            <mxPoint x="1218.48" y="204" as="targetPoint" />
          </mxGeometry>
        </mxCell>
        <mxCell id="qnoUL0Jq2_M7mXEKK1oB-270" value="Show menu" style="text;html=1;strokeColor=none;fillColor=none;align=center;verticalAlign=middle;whiteSpace=wrap;rounded=0;" parent="1" vertex="1">
          <mxGeometry x="808.48" y="254" width="110" height="30" as="geometry" />
        </mxCell>
        <mxCell id="qnoUL0Jq2_M7mXEKK1oB-271" value="" style="endArrow=classic;html=1;rounded=0;dashed=1;" parent="1" edge="1">
          <mxGeometry width="50" height="50" relative="1" as="geometry">
            <mxPoint x="953.48" y="282.46000000000004" as="sourcePoint" />
            <mxPoint x="773.48" y="282.46000000000004" as="targetPoint" />
          </mxGeometry>
        </mxCell>
        <mxCell id="qnoUL0Jq2_M7mXEKK1oB-1" value="&lt;b&gt;&lt;font style=&quot;font-size: 18px;&quot;&gt;Actor&lt;/font&gt;&lt;/b&gt;" style="shape=umlActor;verticalLabelPosition=bottom;verticalAlign=top;html=1;outlineConnect=0;strokeWidth=4;" parent="1" vertex="1">
          <mxGeometry x="753.48" y="-1416" width="30" height="60" as="geometry" />
        </mxCell>
        <mxCell id="qnoUL0Jq2_M7mXEKK1oB-2" value="&lt;b&gt;&lt;font style=&quot;font-size: 20px;&quot;&gt;MODEL&lt;/font&gt;&lt;/b&gt;" style="rounded=0;whiteSpace=wrap;html=1;" parent="1" vertex="1">
          <mxGeometry x="1363.48" y="-1426" width="170" height="90" as="geometry" />
        </mxCell>
        <mxCell id="qnoUL0Jq2_M7mXEKK1oB-3" value="&lt;b&gt;&lt;font style=&quot;font-size: 20px;&quot;&gt;VIEW&lt;/font&gt;&lt;/b&gt;" style="rounded=0;whiteSpace=wrap;html=1;" parent="1" vertex="1">
          <mxGeometry x="883.48" y="-1426" width="150" height="90" as="geometry" />
        </mxCell>
        <mxCell id="qnoUL0Jq2_M7mXEKK1oB-4" value="&lt;b&gt;&lt;font style=&quot;font-size: 20px;&quot;&gt;CONTROLLER&lt;/font&gt;&lt;/b&gt;" style="rounded=0;whiteSpace=wrap;html=1;" parent="1" vertex="1">
          <mxGeometry x="1113.48" y="-1426" width="190" height="90" as="geometry" />
        </mxCell>
        <mxCell id="qnoUL0Jq2_M7mXEKK1oB-5" value="" style="endArrow=none;dashed=1;html=1;rounded=0;" parent="1" edge="1">
          <mxGeometry width="50" height="50" relative="1" as="geometry">
            <mxPoint x="763.48" y="-1266" as="sourcePoint" />
            <mxPoint x="763.48" y="-1326" as="targetPoint" />
          </mxGeometry>
        </mxCell>
        <mxCell id="qnoUL0Jq2_M7mXEKK1oB-7" value="" style="endArrow=none;dashed=1;html=1;rounded=0;" parent="1" edge="1">
          <mxGeometry width="50" height="50" relative="1" as="geometry">
            <mxPoint x="962.48" y="-1266" as="sourcePoint" />
            <mxPoint x="962.48" y="-1336" as="targetPoint" />
          </mxGeometry>
        </mxCell>
        <mxCell id="qnoUL0Jq2_M7mXEKK1oB-8" value="" style="endArrow=none;dashed=1;html=1;rounded=0;exitX=0;exitY=0.75;exitDx=0;exitDy=0;" parent="1" source="gqO7WR2qKQyJyXqrul-2-131" edge="1">
          <mxGeometry width="50" height="50" relative="1" as="geometry">
            <mxPoint x="1199.72" y="-1021" as="sourcePoint" />
            <mxPoint x="1199.6499999999999" y="-1336" as="targetPoint" />
          </mxGeometry>
        </mxCell>
        <mxCell id="qnoUL0Jq2_M7mXEKK1oB-10" value="" style="rounded=0;whiteSpace=wrap;html=1;rotation=90;" parent="1" vertex="1">
          <mxGeometry x="-1022.14" y="511.51" width="3568.76" height="12.5" as="geometry" />
        </mxCell>
        <mxCell id="qnoUL0Jq2_M7mXEKK1oB-12" value="" style="rounded=0;whiteSpace=wrap;html=1;rotation=90;" parent="1" vertex="1">
          <mxGeometry x="-743.44" y="431.55" width="3408.86" height="13.75" as="geometry" />
        </mxCell>
        <mxCell id="qnoUL0Jq2_M7mXEKK1oB-13" value="" style="endArrow=classic;html=1;rounded=0;dashed=1;" parent="1" edge="1">
          <mxGeometry width="50" height="50" relative="1" as="geometry">
            <mxPoint x="953.48" y="-1206" as="sourcePoint" />
            <mxPoint x="773.48" y="-1206" as="targetPoint" />
          </mxGeometry>
        </mxCell>
        <mxCell id="qnoUL0Jq2_M7mXEKK1oB-14" value="Show menu" style="text;html=1;strokeColor=none;fillColor=none;align=center;verticalAlign=middle;whiteSpace=wrap;rounded=0;" parent="1" vertex="1">
          <mxGeometry x="803.48" y="-1236" width="110" height="30" as="geometry" />
        </mxCell>
        <mxCell id="qnoUL0Jq2_M7mXEKK1oB-53" value="" style="endArrow=none;dashed=1;html=1;rounded=0;entryX=1;entryY=0.75;entryDx=0;entryDy=0;" parent="1" source="kQ5-0zeyX-tTI8NwDyQm-121" target="gqO7WR2qKQyJyXqrul-2-131" edge="1">
          <mxGeometry width="50" height="50" relative="1" as="geometry">
            <mxPoint x="1196.72" y="1809" as="sourcePoint" />
            <mxPoint x="1199.6499999999999" y="-1336" as="targetPoint" />
          </mxGeometry>
        </mxCell>
        <mxCell id="qnoUL0Jq2_M7mXEKK1oB-220" value="" style="shape=card;whiteSpace=wrap;html=1;rotation=-180;" parent="1" vertex="1">
          <mxGeometry x="553.48" y="-486" width="170" height="40" as="geometry" />
        </mxCell>
        <mxCell id="qnoUL0Jq2_M7mXEKK1oB-221" value="&lt;font style=&quot;font-size: 18px;&quot;&gt;alt&lt;/font&gt;" style="text;html=1;strokeColor=none;fillColor=none;align=center;verticalAlign=middle;whiteSpace=wrap;rounded=0;" parent="1" vertex="1">
          <mxGeometry x="593.48" y="-481" width="50" height="30" as="geometry" />
        </mxCell>
        <mxCell id="qnoUL0Jq2_M7mXEKK1oB-222" value="&lt;font style=&quot;font-size: 17px;&quot;&gt;option = update save job&lt;/font&gt;" style="text;html=1;strokeColor=none;fillColor=none;align=center;verticalAlign=middle;whiteSpace=wrap;rounded=0;" parent="1" vertex="1">
          <mxGeometry x="543.48" y="-436" width="230" height="30" as="geometry" />
        </mxCell>
        <mxCell id="qnoUL0Jq2_M7mXEKK1oB-228" value="Show view update&amp;nbsp;" style="text;html=1;strokeColor=none;fillColor=none;align=center;verticalAlign=middle;whiteSpace=wrap;rounded=0;" parent="1" vertex="1">
          <mxGeometry x="803.48" y="-426" width="110" height="30" as="geometry" />
        </mxCell>
        <mxCell id="qnoUL0Jq2_M7mXEKK1oB-229" value="" style="endArrow=classic;html=1;rounded=0;dashed=1;" parent="1" edge="1">
          <mxGeometry width="50" height="50" relative="1" as="geometry">
            <mxPoint x="953.48" y="-396" as="sourcePoint" />
            <mxPoint x="773.48" y="-396" as="targetPoint" />
          </mxGeometry>
        </mxCell>
        <mxCell id="qnoUL0Jq2_M7mXEKK1oB-230" value="Select job to update" style="text;html=1;strokeColor=none;fillColor=none;align=center;verticalAlign=middle;whiteSpace=wrap;rounded=0;" parent="1" vertex="1">
          <mxGeometry x="803.48" y="-386" width="110" height="30" as="geometry" />
        </mxCell>
        <mxCell id="qnoUL0Jq2_M7mXEKK1oB-231" value="" style="endArrow=classic;html=1;rounded=0;dashed=1;" parent="1" edge="1">
          <mxGeometry width="50" height="50" relative="1" as="geometry">
            <mxPoint x="953.48" y="-356" as="sourcePoint" />
            <mxPoint x="773.48" y="-356" as="targetPoint" />
          </mxGeometry>
        </mxCell>
        <mxCell id="qnoUL0Jq2_M7mXEKK1oB-232" value="Job to update&amp;nbsp;" style="text;html=1;strokeColor=none;fillColor=none;align=center;verticalAlign=middle;whiteSpace=wrap;rounded=0;" parent="1" vertex="1">
          <mxGeometry x="808.48" y="-336" width="110" height="30" as="geometry" />
        </mxCell>
        <mxCell id="qnoUL0Jq2_M7mXEKK1oB-233" value="Show feedback" style="text;html=1;strokeColor=none;fillColor=none;align=center;verticalAlign=middle;whiteSpace=wrap;rounded=0;" parent="1" vertex="1">
          <mxGeometry x="808.48" y="-213.6500000000001" width="110" height="30" as="geometry" />
        </mxCell>
        <mxCell id="qnoUL0Jq2_M7mXEKK1oB-234" value="" style="endArrow=classic;html=1;rounded=0;exitX=0.098;exitY=-0.066;exitDx=0;exitDy=0;exitPerimeter=0;" parent="1" edge="1">
          <mxGeometry width="50" height="50" relative="1" as="geometry">
            <mxPoint x="776.395" y="-298.33500000000004" as="sourcePoint" />
            <mxPoint x="950.57" y="-298.5" as="targetPoint" />
            <Array as="points">
              <mxPoint x="870.5699999999999" y="-298.5" />
            </Array>
          </mxGeometry>
        </mxCell>
        <mxCell id="qnoUL0Jq2_M7mXEKK1oB-235" value="" style="endArrow=classic;html=1;rounded=0;exitX=0.098;exitY=-0.066;exitDx=0;exitDy=0;exitPerimeter=0;" parent="1" edge="1">
          <mxGeometry width="50" height="50" relative="1" as="geometry">
            <mxPoint x="978.4750000000001" y="-275.83500000000004" as="sourcePoint" />
            <mxPoint x="1178.48" y="-276" as="targetPoint" />
            <Array as="points">
              <mxPoint x="1072.6499999999999" y="-276" />
            </Array>
          </mxGeometry>
        </mxCell>
        <mxCell id="qnoUL0Jq2_M7mXEKK1oB-236" value="" style="rounded=0;whiteSpace=wrap;html=1;rotation=90;" parent="1" vertex="1">
          <mxGeometry x="1406.1200000000001" y="-243.6500000000001" width="74.7" height="10" as="geometry" />
        </mxCell>
        <mxCell id="qnoUL0Jq2_M7mXEKK1oB-237" value="" style="endArrow=classic;html=1;rounded=0;" parent="1" edge="1">
          <mxGeometry width="50" height="50" relative="1" as="geometry">
            <mxPoint x="1218.48" y="-261" as="sourcePoint" />
            <mxPoint x="1428.48" y="-261" as="targetPoint" />
            <Array as="points" />
          </mxGeometry>
        </mxCell>
        <mxCell id="qnoUL0Jq2_M7mXEKK1oB-238" value="" style="endArrow=classic;html=1;rounded=0;dashed=1;" parent="1" edge="1">
          <mxGeometry width="50" height="50" relative="1" as="geometry">
            <mxPoint x="1178.48" y="-216" as="sourcePoint" />
            <mxPoint x="978.48" y="-216" as="targetPoint" />
          </mxGeometry>
        </mxCell>
        <mxCell id="qnoUL0Jq2_M7mXEKK1oB-239" value="Send feedback" style="text;html=1;strokeColor=none;fillColor=none;align=center;verticalAlign=middle;whiteSpace=wrap;rounded=0;" parent="1" vertex="1">
          <mxGeometry x="1265.48" y="-256" width="110" height="30" as="geometry" />
        </mxCell>
        <mxCell id="qnoUL0Jq2_M7mXEKK1oB-240" value="Send feedback" style="text;html=1;strokeColor=none;fillColor=none;align=center;verticalAlign=middle;whiteSpace=wrap;rounded=0;" parent="1" vertex="1">
          <mxGeometry x="1018.48" y="-243.6500000000001" width="110" height="30" as="geometry" />
        </mxCell>
        <mxCell id="qnoUL0Jq2_M7mXEKK1oB-241" value="Send job to update&amp;nbsp;" style="text;html=1;strokeColor=none;fillColor=none;align=center;verticalAlign=middle;whiteSpace=wrap;rounded=0;" parent="1" vertex="1">
          <mxGeometry x="1018.48" y="-306" width="110" height="30" as="geometry" />
        </mxCell>
        <mxCell id="qnoUL0Jq2_M7mXEKK1oB-242" value="Write changes" style="text;html=1;strokeColor=none;fillColor=none;align=center;verticalAlign=middle;whiteSpace=wrap;rounded=0;" parent="1" vertex="1">
          <mxGeometry x="1268.48" y="-286" width="110" height="30" as="geometry" />
        </mxCell>
        <mxCell id="qnoUL0Jq2_M7mXEKK1oB-243" value="" style="endArrow=classic;html=1;rounded=0;dashed=1;" parent="1" edge="1">
          <mxGeometry width="50" height="50" relative="1" as="geometry">
            <mxPoint x="953.48" y="-186.76999999999998" as="sourcePoint" />
            <mxPoint x="773.48" y="-186.76999999999998" as="targetPoint" />
          </mxGeometry>
        </mxCell>
        <mxCell id="qnoUL0Jq2_M7mXEKK1oB-244" value="" style="rounded=0;whiteSpace=wrap;html=1;rotation=90;" parent="1" vertex="1">
          <mxGeometry x="1157.23" y="-254.75" width="90" height="12.5" as="geometry" />
        </mxCell>
        <mxCell id="qnoUL0Jq2_M7mXEKK1oB-245" value="" style="endArrow=classic;html=1;rounded=0;dashed=1;" parent="1" edge="1">
          <mxGeometry width="50" height="50" relative="1" as="geometry">
            <mxPoint x="1418.48" y="-226" as="sourcePoint" />
            <mxPoint x="1218.48" y="-226" as="targetPoint" />
          </mxGeometry>
        </mxCell>
        <mxCell id="qnoUL0Jq2_M7mXEKK1oB-246" value="Show menu" style="text;html=1;strokeColor=none;fillColor=none;align=center;verticalAlign=middle;whiteSpace=wrap;rounded=0;" parent="1" vertex="1">
          <mxGeometry x="808.48" y="-176" width="110" height="30" as="geometry" />
        </mxCell>
        <mxCell id="qnoUL0Jq2_M7mXEKK1oB-247" value="" style="endArrow=classic;html=1;rounded=0;dashed=1;" parent="1" edge="1">
          <mxGeometry width="50" height="50" relative="1" as="geometry">
            <mxPoint x="953.48" y="-147.53999999999996" as="sourcePoint" />
            <mxPoint x="773.48" y="-147.53999999999996" as="targetPoint" />
          </mxGeometry>
        </mxCell>
        <mxCell id="qnoUL0Jq2_M7mXEKK1oB-268" value="" style="rounded=0;whiteSpace=wrap;html=1;rotation=90;" parent="1" vertex="1">
          <mxGeometry x="1157.23" y="175.25" width="90" height="12.5" as="geometry" />
        </mxCell>
        <mxCell id="qnoUL0Jq2_M7mXEKK1oB-294" value="" style="rounded=0;whiteSpace=wrap;html=1;rotation=90;" parent="1" vertex="1">
          <mxGeometry x="1157.23" y="645.25" width="90" height="12.5" as="geometry" />
        </mxCell>
        <mxCell id="qnoUL0Jq2_M7mXEKK1oB-295" value="" style="rounded=0;whiteSpace=wrap;html=1;rotation=90;" parent="1" vertex="1">
          <mxGeometry x="1406.1200000000001" y="656.3499999999999" width="74.7" height="10" as="geometry" />
        </mxCell>
        <mxCell id="qnoUL0Jq2_M7mXEKK1oB-260" value="" style="rounded=0;whiteSpace=wrap;html=1;rotation=90;" parent="1" vertex="1">
          <mxGeometry x="1406.1200000000001" y="186.3499999999999" width="74.7" height="10" as="geometry" />
        </mxCell>
        <mxCell id="qnoUL0Jq2_M7mXEKK1oB-320" value="" style="rounded=0;whiteSpace=wrap;html=1;rotation=90;" parent="1" vertex="1">
          <mxGeometry x="1406.1200000000001" y="1096.35" width="74.7" height="10" as="geometry" />
        </mxCell>
        <mxCell id="qnoUL0Jq2_M7mXEKK1oB-319" value="" style="rounded=0;whiteSpace=wrap;html=1;rotation=90;" parent="1" vertex="1">
          <mxGeometry x="1157.23" y="1085.25" width="90" height="12.5" as="geometry" />
        </mxCell>
        <mxCell id="qnoUL0Jq2_M7mXEKK1oB-345" value="" style="endArrow=classic;html=1;rounded=0;exitX=1;exitY=0;exitDx=0;exitDy=0;dashed=1;" parent="1" edge="1" source="qnoUL0Jq2_M7mXEKK1oB-10">
          <mxGeometry width="50" height="50" relative="1" as="geometry">
            <mxPoint x="786.6400000000001" y="2300.5096000000003" as="sourcePoint" />
            <mxPoint x="1203.48" y="2301" as="targetPoint" />
          </mxGeometry>
        </mxCell>
        <mxCell id="kQ5-0zeyX-tTI8NwDyQm-99" value="" style="shape=card;whiteSpace=wrap;html=1;rotation=-180;" parent="1" vertex="1">
          <mxGeometry x="560.36" y="1320" width="170" height="40" as="geometry" />
        </mxCell>
        <mxCell id="kQ5-0zeyX-tTI8NwDyQm-100" value="&lt;font style=&quot;font-size: 18px;&quot;&gt;alt&lt;/font&gt;" style="text;html=1;strokeColor=none;fillColor=none;align=center;verticalAlign=middle;whiteSpace=wrap;rounded=0;" parent="1" vertex="1">
          <mxGeometry x="600.36" y="1325" width="50" height="30" as="geometry" />
        </mxCell>
        <mxCell id="kQ5-0zeyX-tTI8NwDyQm-101" value="&lt;font style=&quot;font-size: 17px;&quot;&gt;option = select logformat&lt;/font&gt;" style="text;html=1;strokeColor=none;fillColor=none;align=center;verticalAlign=middle;whiteSpace=wrap;rounded=0;" parent="1" vertex="1">
          <mxGeometry x="541.6" y="1370" width="230" height="29" as="geometry" />
        </mxCell>
        <mxCell id="kQ5-0zeyX-tTI8NwDyQm-102" value="Show view update&amp;nbsp;" style="text;html=1;strokeColor=none;fillColor=none;align=center;verticalAlign=middle;whiteSpace=wrap;rounded=0;" parent="1" vertex="1">
          <mxGeometry x="810.36" y="1380" width="110" height="30" as="geometry" />
        </mxCell>
        <mxCell id="kQ5-0zeyX-tTI8NwDyQm-103" value="" style="endArrow=classic;html=1;rounded=0;dashed=1;entryX=0.75;entryY=0;entryDx=0;entryDy=0;exitX=0.785;exitY=0.926;exitDx=0;exitDy=0;exitPerimeter=0;" parent="1" edge="1" target="qnoUL0Jq2_M7mXEKK1oB-10" source="qnoUL0Jq2_M7mXEKK1oB-12">
          <mxGeometry width="50" height="50" relative="1" as="geometry">
            <mxPoint x="933.6" y="1410" as="sourcePoint" />
            <mxPoint x="780.36" y="1410" as="targetPoint" />
          </mxGeometry>
        </mxCell>
        <mxCell id="kQ5-0zeyX-tTI8NwDyQm-104" value="Select logformat" style="text;html=1;strokeColor=none;fillColor=none;align=center;verticalAlign=middle;whiteSpace=wrap;rounded=0;" parent="1" vertex="1">
          <mxGeometry x="810.36" y="1420" width="120" height="30" as="geometry" />
        </mxCell>
        <mxCell id="kQ5-0zeyX-tTI8NwDyQm-105" value="" style="endArrow=classic;html=1;rounded=0;dashed=1;entryX=0.761;entryY=-0.114;entryDx=0;entryDy=0;entryPerimeter=0;exitX=0.797;exitY=1.24;exitDx=0;exitDy=0;exitPerimeter=0;" parent="1" edge="1" target="qnoUL0Jq2_M7mXEKK1oB-10" source="qnoUL0Jq2_M7mXEKK1oB-12">
          <mxGeometry width="50" height="50" relative="1" as="geometry">
            <mxPoint x="930.6" y="1450" as="sourcePoint" />
            <mxPoint x="780.36" y="1450" as="targetPoint" />
          </mxGeometry>
        </mxCell>
        <mxCell id="kQ5-0zeyX-tTI8NwDyQm-106" value="Choosen logformat" style="text;html=1;strokeColor=none;fillColor=none;align=center;verticalAlign=middle;whiteSpace=wrap;rounded=0;" parent="1" vertex="1">
          <mxGeometry x="815.36" y="1480" width="110" height="30" as="geometry" />
        </mxCell>
        <mxCell id="kQ5-0zeyX-tTI8NwDyQm-107" value="Show feedback" style="text;html=1;strokeColor=none;fillColor=none;align=center;verticalAlign=middle;whiteSpace=wrap;rounded=0;" parent="1" vertex="1">
          <mxGeometry x="815.36" y="1592.35" width="110" height="30" as="geometry" />
        </mxCell>
        <mxCell id="kQ5-0zeyX-tTI8NwDyQm-108" value="" style="endArrow=classic;html=1;rounded=0;" parent="1" edge="1">
          <mxGeometry width="50" height="50" relative="1" as="geometry">
            <mxPoint x="772" y="1508" as="sourcePoint" />
            <mxPoint x="948.6" y="1508" as="targetPoint" />
            <Array as="points" />
          </mxGeometry>
        </mxCell>
        <mxCell id="kQ5-0zeyX-tTI8NwDyQm-109" value="" style="endArrow=classic;html=1;rounded=0;exitX=0.098;exitY=-0.066;exitDx=0;exitDy=0;exitPerimeter=0;" parent="1" edge="1">
          <mxGeometry width="50" height="50" relative="1" as="geometry">
            <mxPoint x="985.3550000000001" y="1530.165" as="sourcePoint" />
            <mxPoint x="1185.3600000000001" y="1530" as="targetPoint" />
            <Array as="points">
              <mxPoint x="1079.53" y="1530" />
            </Array>
          </mxGeometry>
        </mxCell>
        <mxCell id="kQ5-0zeyX-tTI8NwDyQm-110" value="" style="endArrow=classic;html=1;rounded=0;" parent="1" edge="1">
          <mxGeometry width="50" height="50" relative="1" as="geometry">
            <mxPoint x="1225.3600000000001" y="1545" as="sourcePoint" />
            <mxPoint x="1435.3600000000001" y="1545" as="targetPoint" />
            <Array as="points" />
          </mxGeometry>
        </mxCell>
        <mxCell id="kQ5-0zeyX-tTI8NwDyQm-111" value="" style="endArrow=classic;html=1;rounded=0;dashed=1;" parent="1" edge="1">
          <mxGeometry width="50" height="50" relative="1" as="geometry">
            <mxPoint x="1185.3600000000001" y="1590" as="sourcePoint" />
            <mxPoint x="985.36" y="1590" as="targetPoint" />
          </mxGeometry>
        </mxCell>
        <mxCell id="kQ5-0zeyX-tTI8NwDyQm-112" value="Send feedback" style="text;html=1;strokeColor=none;fillColor=none;align=center;verticalAlign=middle;whiteSpace=wrap;rounded=0;" parent="1" vertex="1">
          <mxGeometry x="1272.3600000000001" y="1550" width="110" height="30" as="geometry" />
        </mxCell>
        <mxCell id="kQ5-0zeyX-tTI8NwDyQm-113" value="Send feedback" style="text;html=1;strokeColor=none;fillColor=none;align=center;verticalAlign=middle;whiteSpace=wrap;rounded=0;" parent="1" vertex="1">
          <mxGeometry x="1025.3600000000001" y="1562.35" width="110" height="30" as="geometry" />
        </mxCell>
        <mxCell id="kQ5-0zeyX-tTI8NwDyQm-114" value="Send logformat" style="text;html=1;strokeColor=none;fillColor=none;align=center;verticalAlign=middle;whiteSpace=wrap;rounded=0;" parent="1" vertex="1">
          <mxGeometry x="1025.3600000000001" y="1500" width="110" height="30" as="geometry" />
        </mxCell>
        <mxCell id="kQ5-0zeyX-tTI8NwDyQm-115" value="Change logformat" style="text;html=1;strokeColor=none;fillColor=none;align=center;verticalAlign=middle;whiteSpace=wrap;rounded=0;" parent="1" vertex="1">
          <mxGeometry x="1275.3600000000001" y="1520" width="110" height="30" as="geometry" />
        </mxCell>
        <mxCell id="kQ5-0zeyX-tTI8NwDyQm-116" value="" style="endArrow=classic;html=1;rounded=0;dashed=1;entryX=0.809;entryY=-0.085;entryDx=0;entryDy=0;entryPerimeter=0;exitX=0.847;exitY=1.267;exitDx=0;exitDy=0;exitPerimeter=0;" parent="1" edge="1" target="qnoUL0Jq2_M7mXEKK1oB-10" source="qnoUL0Jq2_M7mXEKK1oB-12">
          <mxGeometry width="50" height="50" relative="1" as="geometry">
            <mxPoint x="934.6" y="1619" as="sourcePoint" />
            <mxPoint x="780.36" y="1619.23" as="targetPoint" />
          </mxGeometry>
        </mxCell>
        <mxCell id="kQ5-0zeyX-tTI8NwDyQm-117" value="" style="endArrow=classic;html=1;rounded=0;dashed=1;" parent="1" edge="1">
          <mxGeometry width="50" height="50" relative="1" as="geometry">
            <mxPoint x="1425.3600000000001" y="1580" as="sourcePoint" />
            <mxPoint x="1225.3600000000001" y="1580" as="targetPoint" />
          </mxGeometry>
        </mxCell>
        <mxCell id="kQ5-0zeyX-tTI8NwDyQm-118" value="Show menu" style="text;html=1;strokeColor=none;fillColor=none;align=center;verticalAlign=middle;whiteSpace=wrap;rounded=0;" parent="1" vertex="1">
          <mxGeometry x="815.36" y="1630" width="110" height="30" as="geometry" />
        </mxCell>
        <mxCell id="kQ5-0zeyX-tTI8NwDyQm-119" value="" style="endArrow=classic;html=1;rounded=0;dashed=1;exitX=0.858;exitY=1.109;exitDx=0;exitDy=0;exitPerimeter=0;entryX=0.82;entryY=-0.027;entryDx=0;entryDy=0;entryPerimeter=0;" parent="1" edge="1" target="qnoUL0Jq2_M7mXEKK1oB-10" source="qnoUL0Jq2_M7mXEKK1oB-12">
          <mxGeometry width="50" height="50" relative="1" as="geometry">
            <mxPoint x="939" y="1658" as="sourcePoint" />
            <mxPoint x="780.36" y="1658.46" as="targetPoint" />
          </mxGeometry>
        </mxCell>
        <mxCell id="kQ5-0zeyX-tTI8NwDyQm-120" value="" style="rounded=0;whiteSpace=wrap;html=1;rotation=90;" parent="1" vertex="1">
          <mxGeometry x="1413.0000000000002" y="1562.35" width="74.7" height="10" as="geometry" />
        </mxCell>
        <mxCell id="kQ5-0zeyX-tTI8NwDyQm-123" value="" style="endArrow=none;dashed=1;html=1;rounded=0;exitX=0;exitY=0.5;exitDx=0;exitDy=0;" parent="1" target="kQ5-0zeyX-tTI8NwDyQm-121" edge="1" source="XLfkOmLM37LZ0YYAckQE-25">
          <mxGeometry width="50" height="50" relative="1" as="geometry">
            <mxPoint x="1202.72" y="2021" as="sourcePoint" />
            <mxPoint x="1197.72" y="-823" as="targetPoint" />
          </mxGeometry>
        </mxCell>
        <mxCell id="kQ5-0zeyX-tTI8NwDyQm-121" value="" style="rounded=0;whiteSpace=wrap;html=1;rotation=90;" parent="1" vertex="1">
          <mxGeometry x="1154.1100000000001" y="1550" width="90" height="12.5" as="geometry" />
        </mxCell>
        <mxCell id="XLfkOmLM37LZ0YYAckQE-2" value="" style="shape=card;whiteSpace=wrap;html=1;rotation=-180;" vertex="1" parent="1">
          <mxGeometry x="564.36" y="1774" width="184.76" height="40" as="geometry" />
        </mxCell>
        <mxCell id="XLfkOmLM37LZ0YYAckQE-3" value="&lt;font style=&quot;font-size: 18px;&quot;&gt;alt&lt;/font&gt;" style="text;html=1;strokeColor=none;fillColor=none;align=center;verticalAlign=middle;whiteSpace=wrap;rounded=0;" vertex="1" parent="1">
          <mxGeometry x="619.12" y="1779" width="50" height="30" as="geometry" />
        </mxCell>
        <mxCell id="XLfkOmLM37LZ0YYAckQE-4" value="&lt;font style=&quot;font-size: 17px;&quot;&gt;option = select extensions to encrypt&lt;/font&gt;" style="text;html=1;strokeColor=none;fillColor=none;align=center;verticalAlign=middle;whiteSpace=wrap;rounded=0;" vertex="1" parent="1">
          <mxGeometry x="560.36" y="1824" width="179.64" height="29" as="geometry" />
        </mxCell>
        <mxCell id="XLfkOmLM37LZ0YYAckQE-5" value="Show view update&amp;nbsp;" style="text;html=1;strokeColor=none;fillColor=none;align=center;verticalAlign=middle;whiteSpace=wrap;rounded=0;" vertex="1" parent="1">
          <mxGeometry x="803.48" y="1830" width="110" height="30" as="geometry" />
        </mxCell>
        <mxCell id="XLfkOmLM37LZ0YYAckQE-6" value="" style="endArrow=classic;html=1;rounded=0;dashed=1;entryX=0.877;entryY=-0.334;entryDx=0;entryDy=0;entryPerimeter=0;" edge="1" parent="1" target="qnoUL0Jq2_M7mXEKK1oB-10">
          <mxGeometry width="50" height="50" relative="1" as="geometry">
            <mxPoint x="952.36" y="1864" as="sourcePoint" />
            <mxPoint x="799.12" y="1864" as="targetPoint" />
          </mxGeometry>
        </mxCell>
        <mxCell id="XLfkOmLM37LZ0YYAckQE-7" value="Select extensions to encrypt" style="text;html=1;strokeColor=none;fillColor=none;align=center;verticalAlign=middle;whiteSpace=wrap;rounded=0;" vertex="1" parent="1">
          <mxGeometry x="805.36" y="1874" width="120" height="30" as="geometry" />
        </mxCell>
        <mxCell id="XLfkOmLM37LZ0YYAckQE-8" value="" style="endArrow=classic;html=1;rounded=0;dashed=1;" edge="1" parent="1">
          <mxGeometry width="50" height="50" relative="1" as="geometry">
            <mxPoint x="949.36" y="1904" as="sourcePoint" />
            <mxPoint x="774" y="1904" as="targetPoint" />
          </mxGeometry>
        </mxCell>
        <mxCell id="XLfkOmLM37LZ0YYAckQE-9" value="written extensions" style="text;html=1;strokeColor=none;fillColor=none;align=center;verticalAlign=middle;whiteSpace=wrap;rounded=0;" vertex="1" parent="1">
          <mxGeometry x="803.48" y="1931" width="110" height="30" as="geometry" />
        </mxCell>
        <mxCell id="XLfkOmLM37LZ0YYAckQE-10" value="Show feedback" style="text;html=1;strokeColor=none;fillColor=none;align=center;verticalAlign=middle;whiteSpace=wrap;rounded=0;" vertex="1" parent="1">
          <mxGeometry x="834.12" y="2046.35" width="110" height="30" as="geometry" />
        </mxCell>
        <mxCell id="XLfkOmLM37LZ0YYAckQE-11" value="" style="endArrow=classic;html=1;rounded=0;" edge="1" parent="1">
          <mxGeometry width="50" height="50" relative="1" as="geometry">
            <mxPoint x="775" y="1962" as="sourcePoint" />
            <mxPoint x="951" y="1962" as="targetPoint" />
            <Array as="points" />
          </mxGeometry>
        </mxCell>
        <mxCell id="XLfkOmLM37LZ0YYAckQE-12" value="" style="endArrow=classic;html=1;rounded=0;" edge="1" parent="1">
          <mxGeometry width="50" height="50" relative="1" as="geometry">
            <mxPoint x="976" y="1984" as="sourcePoint" />
            <mxPoint x="1195" y="1984" as="targetPoint" />
            <Array as="points">
              <mxPoint x="1098.29" y="1984" />
            </Array>
          </mxGeometry>
        </mxCell>
        <mxCell id="XLfkOmLM37LZ0YYAckQE-13" value="" style="endArrow=classic;html=1;rounded=0;exitX=0.385;exitY=-0.292;exitDx=0;exitDy=0;exitPerimeter=0;" edge="1" parent="1" source="XLfkOmLM37LZ0YYAckQE-24">
          <mxGeometry width="50" height="50" relative="1" as="geometry">
            <mxPoint x="1244.1200000000001" y="1999" as="sourcePoint" />
            <mxPoint x="1454.1200000000001" y="1999" as="targetPoint" />
            <Array as="points" />
          </mxGeometry>
        </mxCell>
        <mxCell id="XLfkOmLM37LZ0YYAckQE-14" value="" style="endArrow=classic;html=1;rounded=0;dashed=1;entryX=0.971;entryY=-0.199;entryDx=0;entryDy=0;entryPerimeter=0;" edge="1" parent="1" target="qnoUL0Jq2_M7mXEKK1oB-12">
          <mxGeometry width="50" height="50" relative="1" as="geometry">
            <mxPoint x="1204.1200000000001" y="2044" as="sourcePoint" />
            <mxPoint x="1004.12" y="2044" as="targetPoint" />
          </mxGeometry>
        </mxCell>
        <mxCell id="XLfkOmLM37LZ0YYAckQE-15" value="Send feedback" style="text;html=1;strokeColor=none;fillColor=none;align=center;verticalAlign=middle;whiteSpace=wrap;rounded=0;" vertex="1" parent="1">
          <mxGeometry x="1291.1200000000001" y="2004" width="110" height="30" as="geometry" />
        </mxCell>
        <mxCell id="XLfkOmLM37LZ0YYAckQE-16" value="Send feedback" style="text;html=1;strokeColor=none;fillColor=none;align=center;verticalAlign=middle;whiteSpace=wrap;rounded=0;" vertex="1" parent="1">
          <mxGeometry x="1044.1200000000001" y="2016.35" width="110" height="30" as="geometry" />
        </mxCell>
        <mxCell id="XLfkOmLM37LZ0YYAckQE-17" value="Send extensions to encrypt" style="text;html=1;strokeColor=none;fillColor=none;align=center;verticalAlign=middle;whiteSpace=wrap;rounded=0;" vertex="1" parent="1">
          <mxGeometry x="1044.1200000000001" y="1954" width="110" height="30" as="geometry" />
        </mxCell>
        <mxCell id="XLfkOmLM37LZ0YYAckQE-18" value="save the extension to ecrypt" style="text;html=1;strokeColor=none;fillColor=none;align=center;verticalAlign=middle;whiteSpace=wrap;rounded=0;" vertex="1" parent="1">
          <mxGeometry x="1296.1200000000001" y="1967" width="110" height="30" as="geometry" />
        </mxCell>
        <mxCell id="XLfkOmLM37LZ0YYAckQE-19" value="" style="endArrow=classic;html=1;rounded=0;dashed=1;entryX=0.936;entryY=-0.198;entryDx=0;entryDy=0;entryPerimeter=0;" edge="1" parent="1" target="qnoUL0Jq2_M7mXEKK1oB-10">
          <mxGeometry width="50" height="50" relative="1" as="geometry">
            <mxPoint x="953.36" y="2073" as="sourcePoint" />
            <mxPoint x="799.12" y="2073.23" as="targetPoint" />
          </mxGeometry>
        </mxCell>
        <mxCell id="XLfkOmLM37LZ0YYAckQE-20" value="" style="endArrow=classic;html=1;rounded=0;dashed=1;entryX=0.75;entryY=0;entryDx=0;entryDy=0;" edge="1" parent="1" target="XLfkOmLM37LZ0YYAckQE-24">
          <mxGeometry width="50" height="50" relative="1" as="geometry">
            <mxPoint x="1454" y="2030" as="sourcePoint" />
            <mxPoint x="1244.1200000000001" y="2034" as="targetPoint" />
          </mxGeometry>
        </mxCell>
        <mxCell id="XLfkOmLM37LZ0YYAckQE-21" value="Show menu" style="text;html=1;strokeColor=none;fillColor=none;align=center;verticalAlign=middle;whiteSpace=wrap;rounded=0;" vertex="1" parent="1">
          <mxGeometry x="834.12" y="2084" width="110" height="30" as="geometry" />
        </mxCell>
        <mxCell id="XLfkOmLM37LZ0YYAckQE-22" value="" style="endArrow=classic;html=1;rounded=0;dashed=1;entryX=0.947;entryY=-0.281;entryDx=0;entryDy=0;entryPerimeter=0;" edge="1" parent="1" target="qnoUL0Jq2_M7mXEKK1oB-10">
          <mxGeometry width="50" height="50" relative="1" as="geometry">
            <mxPoint x="947.36" y="2112" as="sourcePoint" />
            <mxPoint x="799.12" y="2112.46" as="targetPoint" />
          </mxGeometry>
        </mxCell>
        <mxCell id="XLfkOmLM37LZ0YYAckQE-23" value="" style="rounded=0;whiteSpace=wrap;html=1;rotation=90;" vertex="1" parent="1">
          <mxGeometry x="1428.0000000000002" y="2008.5" width="74.7" height="10" as="geometry" />
        </mxCell>
        <mxCell id="XLfkOmLM37LZ0YYAckQE-24" value="" style="rounded=0;whiteSpace=wrap;html=1;rotation=90;" vertex="1" parent="1">
          <mxGeometry x="1158.37" y="2002" width="90" height="16.5" as="geometry" />
        </mxCell>
        <mxCell id="XLfkOmLM37LZ0YYAckQE-25" value="" style="rounded=0;whiteSpace=wrap;html=1;rotation=90;" vertex="1" parent="1">
          <mxGeometry x="1165" y="2277" width="90" height="16.5" as="geometry" />
        </mxCell>
      </root>
    </mxGraphModel>
  </diagram>
</mxfile>
